<svg width="24" height="24" viewBox="0 0 24 24" fill="none" xmlns="http://www.w3.org/2000/svg">
<g id="Reminder">
<g id="Vector">
<path fill-rule="evenodd" clip-rule="evenodd" d="M12.9976 3.07054C12.9992 3.04724 13 3.02372 13 3C13 2.44772 12.5523 2 12 2C11.4477 2 11 2.44772 11 3C11 3.02372 11.0008 3.04724 11.0024 3.07054C7.60896 3.55472 5 6.47268 5 10V17H4C3.44772 17 3 17.4477 3 18C3 18.5523 3.44772 19 4 19H9C9 20.6569 10.3431 22 12 22C13.6569 22 15 20.6569 15 19H20C20.5523 19 21 18.5523 21 18C21 17.4477 20.5523 17 20 17H19V10C19 6.47268 16.391 3.55472 12.9976 3.07054ZM17 10V17H7V10C7 7.23858 9.23858 5 12 5C14.7614 5 17 7.23858 17 10ZM12 20C11.4477 20 11 19.5523 11 19H13C13 19.5523 12.5523 20 12 20Z" fill="white"/>
<path d="M17 17V10C17 7.23858 14.7614 5 12 5C9.23858 5 7 7.23858 7 10V17H17Z" fill="white"/>
</g>
</g>
</svg>
