<svg width="24" height="24" viewBox="0 0 24 24" fill="none" xmlns="http://www.w3.org/2000/svg">
<path fill-rule="evenodd" clip-rule="evenodd" d="M12 2C12.8665 2 13.6344 2.55792 13.9021 3.38197L15.4737 8.21885H20.5595C21.426 8.21885 22.1939 8.77677 22.4616 9.60081C22.7294 10.4249 22.4361 11.3276 21.7351 11.8369L17.6206 14.8262L19.1922 19.6631C19.4599 20.4872 19.1666 21.3899 18.4657 21.8992C17.7647 22.4085 16.8155 22.4085 16.1145 21.8992L12 18.9098L7.88552 21.8992C7.18454 22.4085 6.23535 22.4085 5.53438 21.8992C4.8334 21.3899 4.54008 20.4872 4.80783 19.6631L6.37943 14.8262L2.26493 11.8369C1.56396 11.3276 1.27064 10.4249 1.53839 9.60081C1.80614 8.77677 2.57405 8.21885 3.4405 8.21885H8.5263L10.0979 3.38197C10.3656 2.55792 11.1336 2 12 2ZM9.97939 10.2188H3.4405L8.73057 14.0623L6.70995 20.2812L12 16.4377L17.2901 20.2812L15.2695 14.0623L20.5595 10.2188H14.0206L12 4L9.97939 10.2188Z" fill="white"/>
<path d="M3.4405 10.2188H9.97939L12 4L14.0206 10.2188H20.5595L15.2695 14.0623L17.2901 20.2812L12 16.4377L6.70995 20.2812L8.73057 14.0623L3.4405 10.2188Z" fill="white"/>
</svg>
